<svg aria-hidden="true" role="img" xmlns="http://www.w3.org/2000/svg" width="24" height="24" fill="none" viewBox="0 0 24 24"><path fill="currentColor" d="M15 13a3 3 0 1 1-6 0 3 3 0 0 1 6 0Z" class=""></path><path fill="var(--interactive-normal)" fill-rule="evenodd" d="M7.17 4.66A3 3 0 0 1 9.85 3h4.3a3 3 0 0 1 2.68 1.66c.34.69.94 1.34 1.71 1.34H20a3 3 0 0 1 3 3v9a3 3 0 0 1-3 3H4a3 3 0 0 1-3-3V9a3 3 0 0 1 3-3h1.46c.77 0 1.37-.65 1.71-1.34ZM17 13a5 5 0 1 1-10 0 5 5 0 0 1 10 0Z" clip-rule="evenodd" class=""></path></svg>