<svg aria-hidden="true" role="img" xmlns="http://www.w3.org/2000/svg" width="24" height="24" fill="none" viewBox="0 0 24 24"><path fill="currentColor" fill-rule="evenodd" d="M12 22a10 10 0 1 0-8.45-4.64c.13.19.11.44-.04.61l-2.06 2.37A1 1 0 0 0 2.2 22H12Zm2-5.26c0 .61.56 1.09 1.14.87a6 6 0 0 0 0-11.22c-.58-.22-1.14.26-1.14.87v.1c0 .45.32.83.73 1.03a4 4 0 0 1 0 7.22c-.41.2-.73.58-.73 1.04v.09Zm0-3.32c0 .69.7 1.15 1.18.65a2.99 2.99 0 0 0 0-4.14c-.48-.5-1.18-.04-1.18.65v2.84ZM12 7a1 1 0 0 0-1-1h-.05a1 1 0 0 0-.75.34L7.87 9H6a1 1 0 0 0-1 1v4a1 1 0 0 0 1 1h1.87l2.33 2.66a1 1 0 0 0 .75.34H11a1 1 0 0 0 1-1V7Z" clip-rule="evenodd" class=""></path></svg>