<svg aria-hidden="true" role="img" xmlns="http://www.w3.org/2000/svg" width="24" height="24" fill="none" viewBox="0 0 24 24"><path d="M19 14a1 1 0 0 1 1 1v3h3a1 1 0 1 1 0 2h-3v3a1 1 0 1 1-2 0v-3h-3a1 1 0 1 1 0-2h3v-3a1 1 0 0 1 1-1Z" fill="currentColor" class=""></path><path d="M20.76 12.57c.4.3 1.23.13 1.24-.37V12a10 10 0 1 0-18.44 5.36c.12.19.1.44-.04.61l-2.07 2.37A1 1 0 0 0 2.2 22h10c.5-.01.67-.84.37-1.24A3 3 0 0 1 15 16h.5a.5.5 0 0 0 .5-.5V15a3 3 0 0 1 4.76-2.43Z" fill="var(--interactive-normal)" class=""></path></svg>