<svg aria-hidden="true" role="img" xmlns="http://www.w3.org/2000/svg" width="24" height="24" fill="none" viewBox="0 0 24 24"><path d="M12.93 21.96c.25-.03.43-.23.47-.47a3 3 0 0 1 .08-.35.66.66 0 0 0-.24-.71A3 3 0 0 1 12 18v-3a3 3 0 0 1 4.35-2.68c.14.07.3.09.44.04a7 7 0 0 1 4.58.05c.3.1.63-.1.63-.41a10 10 0 1 0-18.45 5.36c.13.19.11.44-.04.61l-2.06 2.37A1 1 0 0 0 2.2 22H12c.32 0 .63-.01.93-.04Z" fill="currentColor" class=""></path><path d="M18 17h-1.24a3 3 0 1 1 .26 4.25 1 1 0 1 0-1.33 1.5A4.98 4.98 0 0 0 24 19a5 5 0 0 0-8-4 1 1 0 0 0-2 0v3a1 1 0 0 0 1 1h3a1 1 0 1 0 0-2Z" fill="var(--interactive-normal)" class=""></path></svg>