<svg aria-hidden="true" role="img" xmlns="http://www.w3.org/2000/svg" width="24" height="24" fill="none" viewBox="0 0 24 24"><path fill="currentColor" d="M15.3 15.3a1 1 0 0 1 1.4 0l2.3 2.29 2.3-2.3a1 1 0 0 1 1.4 1.42L20.43 19l2.29 2.3a1 1 0 0 1-1.42 1.4L19 20.42l-2.3 2.3a1 1 0 0 1-1.4-1.42L17.58 19l-2.3-2.3a1 1 0 0 1 0-1.4Z" class=""></path><path fill="var(--interactive-normal)" d="m18.65 14.4-.53-.52a3 3 0 0 0-4.24 4.24l.53.53c.2.2.2.5 0 .7l-.53.53a2.99 2.99 0 0 0-.84 1.63c-.04.25-.23.46-.48.47L12 22H2.2a1 1 0 0 1-.75-1.66l2.07-2.37a.52.52 0 0 0 .04-.61 10 10 0 1 1 18.43-4.8c-.02.25-.23.44-.48.48-.6.1-1.17.38-1.63.84l-.52.52a.5.5 0 0 1-.71 0Z" class=""></path></svg>