<svg aria-hidden="true" role="img" xmlns="http://www.w3.org/2000/svg" width="24" height="24" fill="none" viewBox="0 0 24 24"><path fill="currentColor" d="M15.74 5.74a.5.5 0 0 0 .54.7l5.01-.88a.5.5 0 0 0 .4-.58l-.26-1.47a3 3 0 0 0-3.2-2.47.46.46 0 0 0-.37.26l-2.12 4.44ZM15.13 2.37a.5.5 0 0 0-.53-.7l-4.25.74a.5.5 0 0 0-.37.28L7.87 7.13a.5.5 0 0 0 .53.7l4.25-.74a.5.5 0 0 0 .37-.28l2.11-4.44ZM6.72 3.05l-2.55.45a3 3 0 0 0-2.43 3.48L2 8.46c.05.27.3.45.58.4l2.2-.39a.5.5 0 0 0 .36-.27l2.12-4.44a.5.5 0 0 0-.54-.7Z" class=""></path><path fill="var(--interactive-normal)" fill-rule="evenodd" d="M2 10.5c0-.28.22-.5.5-.5h19c.28 0 .5.22.5.5V19a3 3 0 0 1-3 3H5a3 3 0 0 1-3-3v-8.5ZM5 14a1 1 0 0 1 1-1h9a1 1 0 1 1 0 2H6a1 1 0 0 1-1-1Zm1 3a1 1 0 1 0 0 2h4a1 1 0 1 0 0-2H6Z" clip-rule="evenodd" class=""></path></svg>