<svg aria-hidden="true" role="img" xmlns="http://www.w3.org/2000/svg" width="24" height="24" fill="none" viewBox="0 0 24 24"><path fill="currentColor" d="M3 16a1 1 0 0 1-1-1v-5a8 8 0 0 1 8-8h5a1 1 0 0 1 1 1v.5a.5.5 0 0 1-.5.5H10a6 6 0 0 0-6 6v5.5a.5.5 0 0 1-.5.5H3Z" class=""></path><path fill="var(--interactive-normal)" d="M6 18a4 4 0 0 0 4 4h8a4 4 0 0 0 4-4v-4h-3a5 5 0 0 1-5-5V6h-4a4 4 0 0 0-4 4v8Z" class=""></path><path fill="var(--interactive-normal)" d="M21.73 12a3 3 0 0 0-.6-.88l-4.25-4.24a3 3 0 0 0-.88-.61V9a3 3 0 0 0 3 3h2.73Z" class=""></path></svg>