<svg aria-hidden="true" role="img" xmlns="http://www.w3.org/2000/svg" width="24" height="24" fill="none" viewBox="0 0 24 24"><path fill="currentColor" d="M13.82 21.7c.17.05.14.3-.04.3H6a4 4 0 0 1-4-4V6a4 4 0 0 1 4-4h7.5c.28 0 .5.22.5.5V5a5 5 0 0 0 5 5h2.5c.28 0 .5.22.5.5v2.3a.4.4 0 0 1-.68.27l-.2-.2a3 3 0 0 0-4.24 0l-4 4a3 3 0 0 0 0 4.25c.3.3.6.46.94.58Z" class=""></path><path fill="var(--interactive-normal)" d="M21.66 8c.03 0 .05-.03.04-.06a3 3 0 0 0-.58-.82l-4.24-4.24a3 3 0 0 0-.82-.58.04.04 0 0 0-.06.04V5a3 3 0 0 0 3 3h2.66ZM18.3 14.3a1 1 0 0 1 1.4 0l4 4a1 1 0 0 1-1.4 1.4L20 17.42V23a1 1 0 1 1-2 0v-5.59l-2.3 2.3a1 1 0 0 1-1.4-1.42l4-4Z" class=""></path></svg>