<svg aria-hidden="true" role="img" xmlns="http://www.w3.org/2000/svg" width="24" height="24" fill="none" viewBox="0 0 24 24"><path fill="currentColor" fill-rule="evenodd" d="M21.76.83a5.02 5.02 0 0 1 .78 7.7 5 5 0 0 1-7.07 0 5.02 5.02 0 0 1 0-7.07 5 5 0 0 1 6.29-.63Zm-4.88 2.05a3 3 0 0 1 3.41-.59l-4 4a3 3 0 0 1 .59-3.41Zm4.83.83-4 4a3 3 0 0 0 4-4Z" clip-rule="evenodd" class=""></path><path fill="var(--interactive-normal)" d="M12.38 1c.38.02.58.45.4.78-.15.3-.3.62-.4.95A.4.4 0 0 1 12 3a9 9 0 0 0-8.95 10h1.87a5 5 0 0 1 4.1 2.13l1.37 1.97a3.1 3.1 0 0 1-.17 3.78 2.85 2.85 0 0 1-3.55.74 11 11 0 0 1 5.71-20.61ZM22.22 11.22c.34-.18.76.02.77.4L23 12a11 11 0 0 1-5.67 9.62c-1.27.71-2.73.23-3.55-.74a3.1 3.1 0 0 1-.17-3.78l1.38-1.97a5 5 0 0 1 4.1-2.13h1.86c.03-.33.05-.66.05-1a.4.4 0 0 1 .27-.38c.33-.1.65-.25.95-.4Z" class=""></path></svg>