<svg aria-hidden="true" role="img" xmlns="http://www.w3.org/2000/svg" width="24" height="24" fill="none" viewBox="0 0 24 24"><path fill="currentColor" d="M9.1 8.85A.5.5 0 0 1 9.45 8h5.1a.5.5 0 0 1 .35.85l-.84.85a3.25 3.25 0 0 0 0 4.6l2.06 2.06A3 3 0 0 1 17 18.5v1.01a.5.5 0 0 1-.5.5h-9a.5.5 0 0 1-.5-.5v-1.01a3 3 0 0 1 .88-2.13l2.06-2.06a3.25 3.25 0 0 0 0-4.6l-.84-.85Z" class=""></path><path fill="var(--interactive-normal)" fill-rule="evenodd" d="M7 1a3 3 0 0 0-3 3v1.51a6 6 0 0 0 1.76 4.25l2.06 2.06c.1.1.1.26 0 .36l-2.06 2.06A6 6 0 0 0 4 18.5V20a3 3 0 0 0 3 3h10a3 3 0 0 0 3-3v-1.51a6 6 0 0 0-1.76-4.25l-2.06-2.06a.25.25 0 0 1 0-.36l2.06-2.06A6 6 0 0 0 20 5.5V4a3 3 0 0 0-3-3H7ZM6 4a1 1 0 0 1 1-1h10a1 1 0 0 1 1 1v1.51a4 4 0 0 1-1.17 2.83l-2.07 2.07c-.88.88-.88 2.3 0 3.18l2.07 2.07A4 4 0 0 1 18 18.49V20a1 1 0 0 1-1 1H7a1 1 0 0 1-1-1v-1.51a4 4 0 0 1 1.17-2.83l2.07-2.07c.88-.88.88-2.3 0-3.18L7.17 8.34A4 4 0 0 1 6 5.51V4Z" clip-rule="evenodd" class=""></path></svg>