<svg aria-hidden="true" role="img" xmlns="http://www.w3.org/2000/svg" width="24" height="24" fill="none" viewBox="0 0 24 24"><path fill="currentColor" d="M20.14.8a1.21 1.21 0 0 0-2.28 0l-.5 1.37a2 2 0 0 1-1.19 1.18l-1.38.51a1.21 1.21 0 0 0 0 2.28l1.38.5a2 2 0 0 1 1.18 1.19l.51 1.38a1.21 1.21 0 0 0 2.28 0l.5-1.38a2 2 0 0 1 1.19-1.18l1.38-.51a1.21 1.21 0 0 0 0-2.28l-1.38-.5a2 2 0 0 1-1.18-1.19L20.14.79Z" class=""></path><path fill="var(--interactive-normal)" fill-rule="evenodd" d="M13.25 2c.17 0 .23.28.1.38A3.22 3.22 0 0 0 14.1 8l1.38.51.5 1.38a3.22 3.22 0 0 0 5.64.76c.1-.14.38-.08.38.09V19a3 3 0 0 1-3 3H5a3 3 0 0 1-3-3V5a3 3 0 0 1 3-3h8.25Zm2.1 11.13 3.5 4.67c.37.5.02 1.2-.6 1.2H5.81a.75.75 0 0 1-.59-1.22l1.86-2.32a1.5 1.5 0 0 1 2.34 0l.5.64 2.23-2.97a2 2 0 0 1 3.2 0ZM10.2 5.98c.23-.91-.88-1.55-1.55-.9a.93.93 0 0 1-1.3 0c-.67-.65-1.78-.01-1.55.9a.93.93 0 0 1-.65 1.12c-.9.26-.9 1.54 0 1.8.48.14.77.63.65 1.12-.23.91.88 1.55 1.55.9a.93.93 0 0 1 1.3 0c.67.65 1.78.01 1.55-.9a.93.93 0 0 1 .65-1.12c.9-.26.9-1.54 0-1.8a.93.93 0 0 1-.65-1.12Z" clip-rule="evenodd" class=""></path></svg>