<svg aria-hidden="true" role="img" xmlns="http://www.w3.org/2000/svg" width="24" height="24" fill="none" viewBox="0 0 24 24"><path fill="currentColor" d="M16.3 14.7a1 1 0 0 1 0-1.4l2.5-2.5a3.95 3.95 0 1 0-5.6-5.6l-2.5 2.5a1 1 0 1 1-1.4-1.4l2.5-2.5a5.95 5.95 0 1 1 8.4 8.4l-2.5 2.5a1 1 0 0 1-1.4 0ZM7.7 9.3a1 1 0 0 1 0 1.4l-2.5 2.5a3.95 3.95 0 0 0 5.6 5.6l2.5-2.5a1 1 0 1 1 1.4 1.4l-2.5 2.5a5.95 5.95 0 0 1-8.4-8.4l2.5-2.5a1 1 0 0 1 1.4 0Z" class=""></path><path fill="var(--interactive-normal)" d="M14.7 10.7a1 1 0 1 0-1.4-1.4l-4 4a1 1 0 0 0 1.4 1.4l4-4Z" class=""></path></svg>