<svg aria-hidden="true" role="img" xmlns="http://www.w3.org/2000/svg" width="24" height="24" fill="none" viewBox="0 0 24 24"><path fill="currentColor" d="M5 4a3 3 0 0 1 3-3h8a3 3 0 0 1 3 3v8.5a.5.5 0 0 1-.5.5h-1a.5.5 0 0 1-.5-.5V4a1 1 0 0 0-1-1H8a1 1 0 0 0-1 1v12a1 1 0 0 0 1 1h1.18c.3 0 .54.26.5.56l-.37 2.94c-.07.6-.01 1.18.16 1.7.11.38-.14.8-.52.8H8a3 3 0 0 1-3-3V4Z" class=""></path><path fill="var(--interactive-normal)" d="M14.02 15c-1.15 0-2.13.86-2.27 2l-.46 3.7a2.05 2.05 0 0 0 4.04.65l.17-.85h3l.17.85a2.05 2.05 0 0 0 4.04-.65l-.46-3.7a2.29 2.29 0 0 0-2.27-2h-5.96Z" class=""></path></svg>