<svg aria-hidden="true" role="img" xmlns="http://www.w3.org/2000/svg" width="24" height="24" fill="none" viewBox="0 0 24 24"><path fill="currentColor" d="M9.8 14.6c-.45.31-.9.6-1.37.89l-.02.01-1.15.73c-.85.57-1.68 1.2-2.4 2.1a7.75 7.75 0 0 0-.7 1.03c-.39.69-.7 1.48-.94 2.42a1 1 0 0 0 1.94.49c.12-.49.26-.9.42-1.28 1.98.08 9.05-.04 12.73-5.34 3.5-5.02 2.89-10.16 2.01-13.89-.19-.81-1.26-1-1.85-.42-1.8 1.8-3.69 2.32-5.67 2.86-2.34.63-4.8 1.3-7.35 4.15a9.13 9.13 0 0 0-2.13 8.7c.9-1.11 1.92-1.88 2.84-2.48.4-.28.8-.53 1.18-.76a13.7 13.7 0 0 0 3.55-2.83 1 1 0 1 1 1.52 1.3A13.44 13.44 0 0 1 9.8 14.6Z" class=""></path></svg>