<svg aria-hidden="true" role="img" xmlns="http://www.w3.org/2000/svg" width="24" height="24" fill="none" viewBox="0 0 24 24"><path fill="currentColor" d="M15 14a2 2 0 1 0 0-4 2 2 0 0 0 0 4Z" class=""></path><path fill="var(--interactive-normal)" fill-rule="evenodd" d="M7 4a1 1 0 0 0 0 2h3a1 1 0 1 1 0 2H5.5a1 1 0 0 0 0 2H8a1 1 0 1 1 0 2H6a1 1 0 1 0 0 2h1.25A8 8 0 1 0 15 4H7Zm8 12a4 4 0 1 0 0-8 4 4 0 0 0 0 8Z" clip-rule="evenodd" class=""></path><path fill="var(--interactive-normal)" d="M2.5 10a1 1 0 0 0 0-2H2a1 1 0 0 0 0 2h.5Z" class=""></path></svg>