<svg aria-hidden="true" role="img" xmlns="http://www.w3.org/2000/svg" width="24" height="24" fill="none" viewBox="0 0 24 24"><path fill="currentColor" d="M10.41 3.59 11.6 2.4a2 2 0 0 1 2.82 0l1.3 1.3a1 1 0 0 0 .7.29h4.18a1.41 1.41 0 0 1 1 2.41L14.4 13.6a1.41 1.41 0 0 1-2.41-1V8.4l-3.11 3.12a2 2 0 0 0-.53 1.87L9.9 20H15a1 1 0 1 1 0 2H3a1 1 0 1 1 0-2h4.86L6.4 13.86a4 4 0 0 1 1.06-3.75L10.8 6.8l-.38-.38a2 2 0 0 1 0-2.82Z" class=""></path><path fill="var(--interactive-normal)" d="M16.99 12.43c-.21.2-.2.55.06.7a3 3 0 0 0 4.08-4.08c-.15-.26-.5-.27-.7-.06l-3.44 3.44Z" class=""></path></svg>