<svg aria-hidden="true" role="img" xmlns="http://www.w3.org/2000/svg" width="24" height="24" fill="none" viewBox="0 0 24 24"><path fill="currentColor" d="M12 14a2 2 0 1 0 0-4 2 2 0 0 0 0 4Z" class=""></path><path fill="var(--interactive-normal)" fill-rule="evenodd" d="M19.5 15.46a13.2 13.2 0 0 0-.72-1.62c-.68.9-1.45 1.78-2.3 2.64a21.05 21.05 0 0 1-7.24 4.9c-2.24.83-4.63.98-6.12-.5-1.48-1.49-1.33-3.88-.5-6.12.33-.89.78-1.82 1.35-2.76a16.28 16.28 0 0 1-1.35-2.76c-.83-2.24-.98-4.63.5-6.12C4.61 1.64 7 1.8 9.24 2.62c.89.33 1.82.78 2.76 1.35a13.7 13.7 0 0 1 4.62-1.86c1.58-.27 3.17-.07 4.26 1.01 1.48 1.49 1.33 3.88.5 6.12-.33.89-.78 1.82-1.35 2.76.57.94 1.02 1.87 1.35 2.76.83 2.24.98 4.63-.5 6.12-1.1 1.09-2.68 1.29-4.3 1a1.5 1.5 0 0 1-2.08-1.38 1.5 1.5 0 0 1 2.9-.52c1.01.1 1.68-.14 2.06-.52.6-.6.81-1.92.04-4ZM8.54 4.5c2 .73 4.35 2.26 6.52 4.44 1 1 1.87 2.04 2.58 3.06A22.82 22.82 0 0 1 12 17.64 22.83 22.83 0 0 1 6.36 12a22.6 22.6 0 0 1 2.27-2.76 1.5 1.5 0 1 0-1.6-1.2 25 25 0 0 0-1.8 2.12c-.3-.56-.54-1.1-.73-1.62-.77-2.08-.56-3.4.04-4 .6-.6 1.92-.81 4-.04ZM4.5 15.46c.19-.52.43-1.06.72-1.62a25.3 25.3 0 0 0 4.94 4.94c-.56.29-1.1.53-1.62.72-2.08.77-3.4.56-4-.04-.6-.6-.81-1.92-.04-4ZM16.96 4.08c-.91.16-1.98.54-3.12 1.14a25.3 25.3 0 0 1 4.94 4.94c.29-.56.53-1.1.72-1.62.77-2.08.56-3.4-.04-4-.43-.43-1.23-.68-2.5-.46Z" clip-rule="evenodd" class=""></path></svg>