<svg aria-hidden="true" role="img" xmlns="http://www.w3.org/2000/svg" width="24" height="24" fill="none" viewBox="0 0 24 24"><path fill="currentColor" fill-rule="evenodd" d="M2 5a3 3 0 0 1 3-3h14a3 3 0 0 1 3 3v8a3 3 0 0 1-3 3H5a3 3 0 0 1-3-3V5Zm6.3.3a1 1 0 0 1 1.4 0L12 7.58l2.3-2.3a1 1 0 1 1 1.4 1.42L13.42 9l2.3 2.3a1 1 0 0 1-1.42 1.4L12 10.42l-2.3 2.3a1 1 0 0 1-1.4-1.42L10.58 9l-2.3-2.3a1 1 0 0 1 0-1.4Z" clip-rule="evenodd" class=""></path><path fill="var(--interactive-normal)" d="M13 19.5c0 .28.22.5.5.5H15a1 1 0 1 1 0 2H9a1 1 0 1 1 0-2h1.5a.5.5 0 0 0 .5-.5v-2c0-.28.22-.5.5-.5h1c.28 0 .5.22.5.5v2Z" class=""></path></svg>