<svg aria-hidden="true" role="img" xmlns="http://www.w3.org/2000/svg" width="24" height="24" fill="none" viewBox="0 0 24 24"><path fill="currentColor" d="m2.7 22.7 20-20a1 1 0 0 0-1.4-1.4l-20 20a1 1 0 1 0 1.4 1.4ZM13.2 16a.5.5 0 0 1-.35-.85l8.3-8.3a.5.5 0 0 1 .85.36V13a3 3 0 0 1-3 3h-5.8ZM17.15 2.85a.5.5 0 0 0-.36-.85H5a3 3 0 0 0-3 3v8a3 3 0 0 0 1.85 2.77c.17.07.36.02.49-.11l12.8-12.8ZM13.5 20a.5.5 0 0 1-.5-.5v-2a.5.5 0 0 0-.5-.5h-1a.5.5 0 0 0-.5.5v2a.5.5 0 0 1-.5.5H9a1 1 0 1 0 0 2h6a1 1 0 1 0 0-2h-1.5Z" class=""></path></svg>