<svg aria-hidden="true" role="img" xmlns="http://www.w3.org/2000/svg" width="24" height="24" fill="none" viewBox="0 0 24 24"><circle cx="19" cy="19" r="5" fill="currentColor" class=""></circle><path fill="var(--interactive-normal)" d="M9.92 2.08c-.07-.45.18-.93.64-.99a11.1 11.1 0 0 1 2.88 0c.46.06.7.54.64.99-.18 1.16.19 2.2.98 2.53.8.33 1.79-.14 2.49-1.1.27-.36.78-.52 1.14-.24.77.59 1.45 1.27 2.04 2.04.28.36.12.87-.24 1.14-.96.7-1.43 1.7-1.1 2.49.33.8 1.37 1.16 2.53.98.45-.07.93.18.99.64a11.1 11.1 0 0 1 .08 1.82c0 .38-.43.58-.77.4a6.97 6.97 0 0 0-5.63-.35c-.28.1-.59-.14-.59-.43a4 4 0 1 0-4 4c.3 0 .53.31.43.59a6.99 6.99 0 0 0 .35 5.63c.18.34-.02.76-.4.77a11.39 11.39 0 0 1-1.82-.08c-.46-.06-.7-.54-.64-.99.18-1.16-.19-2.2-.98-2.53-.8-.33-1.79.15-2.49 1.1-.27.36-.78.52-1.14.24a11.06 11.06 0 0 1-2.04-2.04c-.28-.36-.12-.87.24-1.14.96-.7 1.43-1.7 1.1-2.49-.33-.8-1.37-1.16-2.53-.98-.45.07-.93-.18-.99-.64a11.1 11.1 0 0 1 0-2.88c.06-.46.54-.7.99-.64 1.16.18 2.2-.19 2.53-.98.33-.8-.14-1.79-1.1-2.49-.36-.27-.52-.78-.24-1.14.59-.77 1.27-1.45 2.04-2.04.36-.28.87-.12 1.14.24.7.95 1.7 1.43 2.49 1.1.8-.33 1.16-1.37.98-2.53Z" class=""></path></svg>