<svg aria-hidden="true" role="img" xmlns="http://www.w3.org/2000/svg" width="24" height="24" fill="none" viewBox="0 0 24 24"><path fill="currentColor" d="M21.92 14.08c.32.27.86.15.93-.26A11 11 0 1 0 2.91 18.2c.34.5 1.05.51 1.46.07l.02-.02c.33-.36.34-.91.07-1.33a9 9 0 1 1 16.48-3.88c-.03.22.1.44.29.55.24.14.48.3.7.49Z" class=""></path><path fill="var(--interactive-normal)" d="M13.48 16.18c.39.1.45.62.2.93A2.99 2.99 0 0 0 13 19v3.5c0 .26-.2.47-.46.49a11.16 11.16 0 0 1-5.4-1.12 1.52 1.52 0 0 1-.8-1.84 6 6 0 0 1 7.14-3.85ZM18.98 12.58c-.02.24-.23.42-.48.45-.18.02-.35.05-.53.09-.45.1-1-.36-.98-.82L17 12a5 5 0 1 0-9.6 1.94c.17.42.13.9-.18 1.23l-.05.06c-.43.47-1.18.42-1.45-.14a7 7 0 1 1 13.26-2.51Z" class=""></path><path fill="var(--interactive-normal)" d="M15 12a3 3 0 1 1-6 0 3 3 0 0 1 6 0Z" class=""></path><path fill="var(--interactive-normal)" fill-rule="evenodd" d="M16.5 18H16a1 1 0 0 0-1 1v4a1 1 0 0 0 1 1h6a1 1 0 0 0 1-1v-4a1 1 0 0 0-1-1h-.5v-.5a2.5 2.5 0 0 0-5 0v.5Zm3.5 0v-.5a1 1 0 1 0-2 0v.5h2Z" clip-rule="evenodd" class=""></path></svg>