<svg aria-hidden="true" role="img" xmlns="http://www.w3.org/2000/svg" width="24" height="24" fill="none" viewBox="0 0 24 24"><path fill="currentColor" fill-rule="evenodd" d="M6 2h12a4 4 0 0 1 4 4v7.5a.5.5 0 0 1-.5.5H19a5 5 0 0 0-5 5v2.5a.5.5 0 0 1-.5.5H6a4 4 0 0 1-4-4V6a4 4 0 0 1 4-4Zm.5 8a1.5 1.5 0 1 0 0-3 1.5 1.5 0 0 0 0 3Zm11 0a1.5 1.5 0 1 0 0-3 1.5 1.5 0 0 0 0 3Zm-9.8 3.83a1 1 0 0 0 1.39-.27 3.5 3.5 0 0 1 5.82 0 1 1 0 0 0 1.66-1.12 5.5 5.5 0 0 0-9.14 0 1 1 0 0 0 .27 1.4Z" clip-rule="evenodd" class=""></path><path fill="var(--interactive-normal)" d="M21.66 16c.03 0 .05.03.04.06a3 3 0 0 1-.58.82l-4.24 4.24a3 3 0 0 1-.82.58.04.04 0 0 1-.06-.04V19a3 3 0 0 1 3-3h2.66Z" class=""></path></svg>