<svg aria-hidden="true" role="img" width="25" height="48" viewBox="0 0 25 48" fill="none" xmlns="http://www.w3.org/2000/svg"><path d="M22.6014 22.1003C20.4432 20.6855 18.6067 18.8326 17.2112 16.6618C15.8157 14.4911 14.8925 12.0511 14.5014 9.50028L13.2014 0.700277C13.1553 0.497624 13.0404 0.317179 12.8764 0.189581C12.7123 0.0619821 12.5092 -0.00490199 12.3014 0.000279992C12.1055 -0.00125605 11.9158 0.0691675 11.7683 0.198194C11.6209 0.327221 11.5259 0.505874 11.5014 0.700277L10.1014 9.50028C9.74796 12.0629 8.8402 14.5177 7.44131 16.6938C6.04242 18.8698 4.18605 20.7148 2.00143 22.1003L0.901394 22.8003C0.770775 22.8872 0.665162 23.0067 0.594998 23.1471C0.524833 23.2874 0.49259 23.4436 0.501431 23.6003C0.49259 23.7569 0.524833 23.9132 0.594998 24.0535C0.665162 24.1938 0.770775 24.3134 0.901394 24.4003L2.00143 25.1003C4.18605 26.4857 6.04242 28.3307 7.44131 30.5068C8.8402 32.6828 9.74796 35.1376 10.1014 37.7003L11.5014 46.4003C11.5014 46.6125 11.5857 46.8159 11.7357 46.966C11.8858 47.116 12.0892 47.2003 12.3014 47.2003C12.5238 47.2017 12.7388 47.1207 12.9049 46.973C13.0711 46.8252 13.1767 46.6212 13.2014 46.4003L14.5014 37.7003C14.8925 35.1495 15.8157 32.7095 17.2112 30.5387C18.6067 28.368 20.4432 26.5151 22.6014 25.1003L23.8014 24.4003C24.0329 24.1951 24.1761 23.9085 24.2014 23.6003C24.1761 23.292 24.0329 23.0054 23.8014 22.8003L22.6014 22.1003Z" fill="currentColor"></path></svg>