<svg aria-hidden="true" role="img" xmlns="http://www.w3.org/2000/svg" width="24" height="24" fill="none" viewBox="0 0 24 24"><path fill-rule="evenodd" d="M15.4 1.53A11 11 0 0 0 1.63 15.68c1.4-1.2 3.8-.81 4.54 1.18l.26.7.7.27c2 .73 2.4 3.14 1.19 4.54A11 11 0 0 0 22.47 8.6a2.93 2.93 0 0 1-5.21-.57l-.34-.93a.05.05 0 0 0-.03-.03l-.93-.34a2.93 2.93 0 0 1-.56-5.2ZM6.5 11a1.5 1.5 0 1 0 0-3 1.5 1.5 0 0 0 0 3Zm9 3a1.5 1.5 0 1 0 0-3 1.5 1.5 0 0 0 0 3Zm-2.79.54c.27-.43.02-.95-.43-1.09l-4.06-1.23c-.45-.14-.94.15-.96.66a3.02 3.02 0 0 0 2.05 3.06c1.29.4 2.66-.21 3.4-1.4Z" clip-rule="evenodd" fill="currentColor" class=""></path><path d="M19.42 3.88c.24.22.48.46.7.7a4 4 0 0 0-.12.14c-.2-.27-.45-.51-.72-.72l.14-.12Z" fill="var(--interactive-normal)" class=""></path><path d="M19.09.63a.97.97 0 0 1 1.82 0l.34.93a2 2 0 0 0 1.19 1.19l.93.34a.97.97 0 0 1 0 1.82l-.93.34a2 2 0 0 0-1.19 1.19l-.34.93a.97.97 0 0 1-1.82 0l-.34-.93a2 2 0 0 0-1.19-1.19l-.93-.34a.97.97 0 0 1 0-1.82l.93-.34a2 2 0 0 0 1.19-1.19l.34-.93ZM2.7 17.55a.85.85 0 0 1 1.6 0l.26.71a2 2 0 0 0 1.18 1.18l.7.26a.85.85 0 0 1 0 1.6l-.7.26a2 2 0 0 0-1.18 1.18l-.26.7a.85.85 0 0 1-1.6 0l-.26-.7a2 2 0 0 0-1.18-1.18l-.7-.26a.85.85 0 0 1 0-1.6l.7-.26a2 2 0 0 0 1.18-1.18l.26-.7Z" fill="var(--interactive-normal)" class=""></path></svg>