<svg aria-hidden="true" role="img" xmlns="http://www.w3.org/2000/svg" width="24" height="24" fill="none" viewBox="0 0 24 24"><path fill="currentColor" fill-rule="evenodd" d="M23 12.38c-.02.38-.45.58-.78.4a6.97 6.97 0 0 0-6.27-.08.54.54 0 0 1-.44 0 8.97 8.97 0 0 0-11.16 3.55c-.1.15-.1.35 0 .5.37.58.8 1.13 1.28 1.61.24.24.64.15.8-.15.19-.38.39-.73.58-1.02.14-.21.43-.1.4.15l-.19 1.96c-.02.19.07.37.23.47A8.96 8.96 0 0 0 12 21a.4.4 0 0 1 .38.27c.1.33.25.65.4.95.18.34-.02.76-.4.77L12 23a11 11 0 1 1 11-10.62ZM15.5 7.5a3.5 3.5 0 1 1-7 0 3.5 3.5 0 0 1 7 0Z" clip-rule="evenodd" class=""></path><path fill="var(--interactive-normal)" d="M24 19a5 5 0 1 1-10 0 5 5 0 0 1 10 0Z" class=""></path></svg>